<svg id="Capa_1" enable-background="new 0 0 497 497" height="512" viewBox="0 0 497 497" width="512" xmlns="http://www.w3.org/2000/svg"><g><path d="m467.511 238.34-.126-.106c-26.264-21.998-35.949-58.084-24.23-90.277l.057-.156c2.823-7.754-2.05-16.174-10.179-17.59-33.844-5.896-60.347-32.399-66.243-66.243-1.416-8.129-9.836-13.002-17.59-10.179l-.157.057c-32.193 11.719-68.278 2.034-90.277-24.23l-.106-.126c-5.297-6.324-15.023-6.324-20.32 0l-.106.126c-21.998 26.264-58.084 35.949-90.277 24.23l-.156-.057c-7.754-2.823-16.174 2.05-17.59 10.179-5.896 33.844-32.399 60.347-66.243 66.243-8.129 1.416-13.002 9.837-10.179 17.59l.057.157c11.719 32.193 2.034 68.278-24.23 90.277l-.126.106c-6.324 5.297-6.324 15.023 0 20.32l.126.106c26.264 21.998 35.95 58.084 24.23 90.277l-.057.156c-2.823 7.754 2.05 16.174 10.179 17.59 33.844 5.896 60.347 32.399 66.243 66.243 1.416 8.129 9.836 13.002 17.59 10.179l.157-.057c32.193-11.719 68.278-2.034 90.277 24.23l.106.126c5.297 6.324 15.023 6.324 20.32 0l.106-.126c21.998-26.264 58.084-35.95 90.277-24.23l.156.057c7.754 2.823 16.174-2.05 17.59-10.179 5.896-33.844 32.399-60.347 66.243-66.243 8.129-1.416 13.002-9.836 10.179-17.59l-.057-.157c-11.719-32.193-2.034-68.278 24.23-90.276l.126-.106c6.324-5.298 6.324-15.024 0-20.321z" fill="#fc7a6e"/><path d="m123.441 234.519-1.44-29.881c-.464.021-40.016 1.583-72.588-15.047-.968-12.781-11.638-22.852-24.667-22.852-13.667-.001-24.746 11.079-24.746 24.745 0 13.667 11.079 24.746 24.746 24.746 2.925 0 5.73-.511 8.334-1.443 33.477 18.076 71.807 19.827 85.37 19.827 2.838.001 4.593-.075 4.991-.095z" fill="#f9f097"/><path d="m373.559 234.519 1.44-29.881c.464.021 40.016 1.583 72.588-15.047.968-12.781 11.638-22.852 24.667-22.852 13.667 0 24.746 11.079 24.746 24.746s-11.079 24.746-24.746 24.746c-2.925 0-5.73-.511-8.334-1.443-33.477 18.076-71.807 19.827-85.37 19.827-2.838 0-4.593-.076-4.991-.096z" fill="#f9f097"/><path d="m418.118 200.066c-23.039 5.367-42.792 4.587-43.119 4.572l-1.44 29.881c.398.02 2.153.095 4.991.095 8.211 0 25.505-.649 45.299-5.167-1.086-10.068-3.016-19.888-5.731-29.381z" fill="#f5c956"/><path d="m118.45 234.615c2.838 0 4.593-.076 4.991-.095l-1.44-29.881c-.327.015-20.08.794-43.119-4.573-2.715 9.494-4.645 19.313-5.731 29.383 19.794 4.517 37.088 5.166 45.299 5.166z" fill="#f5c956"/><circle cx="248.5" cy="248.5" fill="#f9f097" r="146.381"/><path d="m196.396 228.168c.007 13.4-13.628 24.269-30.455 24.277-16.826.008-30.472-10.847-30.479-24.247s13.628-24.269 30.455-24.278c16.827-.008 30.473 10.848 30.479 24.248z" fill="#ff9db0"/><path d="m300.604 228.115c.007 13.4 13.653 24.255 30.479 24.247s30.461-10.878 30.455-24.277c-.007-13.4-13.653-24.256-30.479-24.247-16.827.008-30.462 10.877-30.455 24.277z" fill="#ff9db0"/><path d="m278.359 217.158c-.009-18.457-13.381-20.184-29.875-20.176s-29.864 1.749-29.855 20.206 13.388 33.412 29.882 33.403c16.494-.008 29.858-14.977 29.848-33.433z" fill="#423e4f"/><g><path d="m169.171 209.28c-4.141 0-7.498-3.355-7.5-7.496-.003-5.877 2.283-11.403 6.437-15.561 4.153-4.158 9.677-6.449 15.554-6.452h.011c12.127 0 21.995 9.862 22.002 21.99.002 4.142-3.354 7.502-7.496 7.504-.001 0-.003 0-.004 0-4.141 0-7.498-3.355-7.5-7.496-.002-3.86-3.143-6.999-7.002-6.999-.001 0-.002 0-.003 0-3.861.002-7 3.144-6.998 7.005.002 4.142-3.354 7.502-7.497 7.504-.002.001-.003.001-.004.001z" fill="#423e4f"/></g><g><path d="m298.8 209.214c-4.141 0-7.498-3.355-7.5-7.496-.006-12.131 9.859-22.006 21.99-22.012h.012c5.873 0 11.394 2.285 15.549 6.436 4.158 4.154 6.449 9.677 6.452 15.554.002 4.142-3.354 7.502-7.497 7.504-.001 0-.002 0-.003 0-4.141 0-7.498-3.355-7.5-7.496-.001-1.87-.73-3.628-2.053-4.95s-3.098-2.083-4.952-2.048c-3.861.002-7 3.145-6.998 7.005.002 4.142-3.354 7.502-7.496 7.504-.002-.001-.003-.001-.004-.001z" fill="#423e4f"/></g></g></svg>